<svg width="19" height="19" viewBox="0 0 19 19" fill="none" xmlns="http://www.w3.org/2000/svg">
<circle cx="9.5" cy="9.5" r="9.5" fill="#E2E8F0"/>
<path d="M12.7037 14.4758H6.29559C5.31734 14.4758 4.52344 13.6819 4.52344 12.7037V6.97607C4.52344 6.87679 4.55182 6.79174 4.62273 6.70668L6.26721 4.67939C6.35226 4.5801 6.46568 4.52344 6.59326 4.52344H12.3917C12.5193 4.52344 12.6327 4.5801 12.7178 4.67939L14.3765 6.70668C14.4332 6.77759 14.4758 6.87678 14.4758 6.97607V12.7037C14.4758 13.6819 13.6819 14.4758 12.7037 14.4758H12.7037ZM5.37407 7.13202V12.7178C5.37407 13.2282 5.78516 13.6393 6.29554 13.6393H12.7036C13.214 13.6393 13.6251 13.2282 13.6251 12.7178L13.6252 7.13202L12.1933 5.37402H6.80592L5.37407 7.13202Z" fill="#656565"/>
<path d="M13.7109 7.40195H5.2896C5.06274 7.40195 4.86426 7.21762 4.86426 6.97661C4.86426 6.74975 5.04859 6.55127 5.2896 6.55127H13.7109C13.9377 6.55127 14.1362 6.7356 14.1362 6.97661C14.1362 7.20347 13.9519 7.40195 13.7109 7.40195Z" fill="#656565"/>
<path d="M9.50151 12.789C9.27466 12.789 9.07617 12.6047 9.07617 12.3637V8.81938C9.07617 8.59253 9.26051 8.39404 9.50151 8.39404C9.72837 8.39404 9.92686 8.57838 9.92686 8.81938V12.3637C9.92686 12.6047 9.72838 12.789 9.50151 12.789Z" fill="#656565"/>
<path d="M9.50067 12.7892C9.38724 12.7892 9.28805 12.7467 9.2029 12.6616L7.85609 11.3148C7.68599 11.1447 7.68599 10.8895 7.85609 10.7194C8.02618 10.5493 8.28143 10.5493 8.45153 10.7194L9.50067 11.7827L10.5498 10.7335C10.7199 10.5634 10.9752 10.5634 11.1453 10.7335C11.3154 10.9036 11.3154 11.1589 11.1453 11.329L9.79844 12.6758C9.7133 12.7466 9.61411 12.7892 9.50067 12.7892V12.7892Z" fill="#656565"/>
</svg>
