<svg width="20" height="22" viewBox="0 0 20 22" fill="none" xmlns="http://www.w3.org/2000/svg">
<path fill-rule="evenodd" clip-rule="evenodd" d="M17.1043 3.60453V2.05584L17.5045 2.09259C17.6474 2.11207 17.8511 2.22074 18.1152 2.41938C19.1052 3.00214 19.6004 4.02399 19.6004 5.48513V17.5369C19.6004 18.6887 19.2915 19.5737 18.6736 20.1918C18.0557 20.8099 17.1711 21.1189 16.0194 21.1189H3.98138C2.82284 21.1189 1.93797 20.8099 1.32719 20.1919C0.709269 19.5735 0.400391 18.6889 0.400391 17.5371L0.400549 5.48488C0.400549 4.33315 0.709435 3.44812 1.32735 2.83004C1.93801 2.21163 2.82299 1.90308 3.98154 1.90308H4.24497L4.24481 0.680664H5.71921V4.80026H4.24481V3.3778H3.98138C3.23025 3.3778 2.68946 3.54286 2.35934 3.8733C2.03635 4.19628 1.87495 4.73327 1.87495 5.48521V7.22335H18.1258V5.48521C18.2012 4.44053 17.8608 3.81345 17.1043 3.60453ZM15.4402 4.85306H13.9658V3.37785H6.99307V1.90313H13.9654V0.680711H15.4398L15.4402 4.85306ZM17.6307 19.1485C17.9607 18.8255 18.1257 18.2881 18.1257 17.5366V8.69808H1.87446V17.5366C1.87446 18.2881 2.03588 18.8255 2.35884 19.1485C2.6888 19.4785 3.22976 19.6435 3.98089 19.6435H16.0193C16.7708 19.6432 17.3077 19.4785 17.6307 19.1485Z" fill="#718096"/>
</svg>
