<svg width="24" height="24" viewBox="0 0 24 24" fill="none" xmlns="http://www.w3.org/2000/svg">
<path fill-rule="evenodd" clip-rule="evenodd" d="M19.1043 4.60453V3.05584L19.5045 3.09259C19.6474 3.11207 19.8511 3.22074 20.1152 3.41938C21.1052 4.00214 21.6004 5.02399 21.6004 6.48513V18.5369C21.6004 19.6887 21.2915 20.5737 20.6736 21.1918C20.0557 21.8099 19.1711 22.1189 18.0194 22.1189H5.98138C4.82284 22.1189 3.93797 21.8099 3.32719 21.1919C2.70927 20.5735 2.40039 19.6889 2.40039 18.5371L2.40055 6.48488C2.40055 5.33315 2.70944 4.44812 3.32735 3.83004C3.93801 3.21163 4.82299 2.90308 5.98154 2.90308H6.24497L6.24481 1.68066H7.71921V5.80026H6.24481V4.3778H5.98138C5.23025 4.3778 4.68946 4.54286 4.35934 4.8733C4.03635 5.19628 3.87495 5.73327 3.87495 6.48521V8.22335H20.1258V6.48521C20.2012 5.44053 19.8608 4.81345 19.1043 4.60453ZM17.4402 5.85306H15.9658V4.37785H8.99307V2.90313H15.9654V1.68071H17.4398L17.4402 5.85306ZM19.6307 20.1485C19.9607 19.8255 20.1257 19.2881 20.1257 18.5366V9.69808H3.87446V18.5366C3.87446 19.2881 4.03588 19.8255 4.35884 20.1485C4.6888 20.4785 5.22976 20.6435 5.98089 20.6435H18.0193C18.7708 20.6432 19.3077 20.4785 19.6307 20.1485Z" fill="#718096"/>
<path d="M15.0243 12.2156L14.144 13.096C13.6659 12.6181 13.0057 12.3224 12.2761 12.3224C10.8174 12.3224 9.63481 13.5055 9.63481 14.9642H10.661L9.02199 16.6026L7.38477 14.9643H8.38957C8.38957 12.8177 10.1298 11.0771 12.2762 11.0771C13.3494 11.0771 14.3211 11.5122 15.0242 12.2156L15.0243 12.2156ZM17.1229 14.8288L15.4856 13.1903L13.8467 14.8288H14.8729C14.8729 16.2875 13.69 17.4706 12.2314 17.4706C11.5022 17.4706 10.8416 17.175 10.3636 16.697L9.48318 17.5774C10.1866 18.281 11.1582 18.716 12.2314 18.716C14.3779 18.716 16.118 16.9754 16.118 14.8289L17.1229 14.8288Z" fill="#718096"/>
</svg>
