<svg width="20" height="22" viewBox="0 0 20 22" fill="none" xmlns="http://www.w3.org/2000/svg">
<path fill-rule="evenodd" clip-rule="evenodd" d="M17.1043 3.60453V2.05584L17.5045 2.09259C17.6474 2.11207 17.8511 2.22074 18.1152 2.41938C19.1052 3.00214 19.6004 4.02399 19.6004 5.48513V17.5369C19.6004 18.6887 19.2915 19.5737 18.6736 20.1918C18.0557 20.8099 17.1711 21.1189 16.0194 21.1189H3.98138C2.82284 21.1189 1.93797 20.8099 1.32719 20.1919C0.709269 19.5735 0.400391 18.6889 0.400391 17.5371L0.400549 5.48488C0.400549 4.33315 0.709435 3.44812 1.32735 2.83004C1.93801 2.21163 2.82299 1.90308 3.98154 1.90308H4.24497L4.24481 0.680664H5.71921V4.80026H4.24481V3.3778H3.98138C3.23025 3.3778 2.68946 3.54286 2.35934 3.8733C2.03635 4.19628 1.87495 4.73327 1.87495 5.48521V7.22335H18.1258V5.48521C18.2012 4.44053 17.8608 3.8134 17.1043 3.60448L17.1043 3.60453ZM15.4402 4.85306H13.9658V3.37785H6.99307V1.90313H13.9654V0.680711H15.4398V4.85302L15.4402 4.85306ZM10.9326 11.8376H9.08924V9.97256H10.9326V11.8376ZM12.1225 9.97256H13.9655V11.8376H12.1225V9.97256ZM13.9655 13.0489V14.9029H12.1225V13.0489H13.9655ZM7.98341 11.8376H6.14008V9.97256H7.98341V11.8376ZM9.08908 16.241H10.9324V18.1056H9.08908V16.241ZM7.98341 18.1055H6.14008L6.14024 16.241H7.98357L7.98341 18.1055ZM12.1225 18.1055V16.241H13.9655V18.1056L12.1225 18.1057V18.1055ZM10.9325 13.0487V14.9027H9.0892V13.0487H10.9325ZM7.98353 14.9027H6.1402V13.0487H7.98353V14.9027ZM16.8829 11.8374H15.0399V9.9724H16.8829V11.8374ZM16.8829 13.0487V14.9027H15.0399V13.0487H16.8829ZM15.0399 16.2409H16.8829V18.1054H15.0399V16.2409ZM17.6307 19.1485C17.9607 18.8255 18.1257 18.2881 18.1257 17.5366V8.69808H1.87446V17.5366C1.87446 18.2881 2.03588 18.8255 2.35884 19.1485C2.6888 19.4785 3.22976 19.6435 3.98089 19.6435H16.0193C16.7708 19.6432 17.3077 19.4782 17.6307 19.1482V19.1485ZM4.96053 11.8376H3.11735V9.97252H4.96069L4.96053 11.8376ZM4.96053 13.0489V14.9028H3.11735V13.0489H4.96053ZM4.96053 16.241V18.1055L3.11735 18.1057V16.241L4.96053 16.241Z" fill="#718096"/>
</svg>
