<svg width="19" height="19" viewBox="0 0 19 19" fill="none" xmlns="http://www.w3.org/2000/svg">
<path d="M9.5 0C4.26 0 0 4.26 0 9.5C0 14.74 4.26 19 9.5 19C14.74 19 19 14.74 19 9.5C19 4.26 14.74 0 9.5 0ZM14.18 12.76C14.3201 12.9001 14.3201 13.1 14.18 13.24L13.22 14.2C13.08 14.3401 12.8801 14.3401 12.74 14.2L9.50004 10.94L6.24 14.1799C6.09993 14.32 5.90002 14.32 5.75996 14.1799L4.8 13.22C4.65993 13.0799 4.65993 12.88 4.8 12.7399L8.06004 9.49996L4.82007 6.23993C4.68 6.09986 4.68 5.89995 4.82007 5.75989L5.78004 4.79993C5.9201 4.65986 6.12002 4.65986 6.26007 4.79993L9.50004 8.05996L12.7601 4.79993C12.9001 4.65986 13.1001 4.65986 13.2401 4.79993L14.2001 5.75989C14.3401 5.89996 14.3401 6.09988 14.2001 6.23993L10.94 9.49996L14.18 12.76Z" fill="#EF5350"/>
</svg>
