<svg width="16" height="15" viewBox="0 0 16 15" fill="none" xmlns="http://www.w3.org/2000/svg">
<path d="M14.5717 1.48298H11.5717V0.340123C11.5717 0.261551 11.5074 0.197266 11.4289 0.197266H10.4289C10.3503 0.197266 10.286 0.261551 10.286 0.340123V1.48298H5.71457V0.340123C5.71457 0.261551 5.65028 0.197266 5.57171 0.197266H4.57171C4.49314 0.197266 4.42885 0.261551 4.42885 0.340123V1.48298H1.42885C1.11278 1.48298 0.857422 1.73834 0.857422 2.05441V13.9116C0.857422 14.2276 1.11278 14.483 1.42885 14.483H14.5717C14.8878 14.483 15.1431 14.2276 15.1431 13.9116V2.05441C15.1431 1.73834 14.8878 1.48298 14.5717 1.48298ZM13.8574 13.1973H2.14314V6.41155H13.8574V13.1973ZM2.14314 5.19727V2.76869H4.42885V3.62584C4.42885 3.70441 4.49314 3.76869 4.57171 3.76869H5.57171C5.65028 3.76869 5.71457 3.70441 5.71457 3.62584V2.76869H10.286V3.62584C10.286 3.70441 10.3503 3.76869 10.4289 3.76869H11.4289C11.5074 3.76869 11.5717 3.70441 11.5717 3.62584V2.76869H13.8574V5.19727H2.14314Z" fill="#718096"/>
</svg>
