<svg width="19" height="19" viewBox="0 0 19 19" fill="none" xmlns="http://www.w3.org/2000/svg">
<circle cx="9.5" cy="9.5" r="9.5" fill="#E2E8F0"/>
<path d="M5.22461 6.65039H6.17461H13.7746" stroke="#656565" stroke-width="1.16667" stroke-linecap="round" stroke-linejoin="round"/>
<path d="M7.5998 6.65049V5.70049C7.5998 5.44853 7.69989 5.2069 7.87805 5.02874C8.05621 4.85058 8.29785 4.75049 8.5498 4.75049H10.4498C10.7018 4.75049 10.9434 4.85058 11.1216 5.02874C11.2997 5.2069 11.3998 5.44853 11.3998 5.70049V6.65049M12.8248 6.65049V13.3005C12.8248 13.5524 12.7247 13.7941 12.5466 13.9722C12.3684 14.1504 12.1268 14.2505 11.8748 14.2505H7.1248C6.87285 14.2505 6.63121 14.1504 6.45305 13.9722C6.27489 13.7941 6.1748 13.5524 6.1748 13.3005V6.65049H12.8248Z" stroke="#656565" stroke-width="1.16667" stroke-linecap="round" stroke-linejoin="round"/>
</svg>
