<svg width="24" height="24" viewBox="0 0 24 24" fill="none" xmlns="http://www.w3.org/2000/svg">
<circle cx="12" cy="12" r="12" fill="#E2E8F0"/>
<path d="M6.75 8.5H7.91667H17.25" stroke="#656565" stroke-width="1.16667" stroke-linecap="round" stroke-linejoin="round"/>
<path d="M9.6665 8.50033V7.33366C9.6665 7.02424 9.78942 6.72749 10.0082 6.5087C10.227 6.28991 10.5238 6.16699 10.8332 6.16699H13.1665C13.4759 6.16699 13.7727 6.28991 13.9915 6.5087C14.2103 6.72749 14.3332 7.02424 14.3332 7.33366V8.50033M16.0832 8.50033V16.667C16.0832 16.9764 15.9603 17.2732 15.7415 17.492C15.5227 17.7107 15.2259 17.8337 14.9165 17.8337H9.08317C8.77375 17.8337 8.47701 17.7107 8.25821 17.492C8.03942 17.2732 7.9165 16.9764 7.9165 16.667V8.50033H16.0832Z" stroke="#656565" stroke-width="1.16667" stroke-linecap="round" stroke-linejoin="round"/>
</svg>
