<svg width="28" height="28" viewBox="0 0 28 28" fill="none" xmlns="http://www.w3.org/2000/svg">
<circle cx="14" cy="14" r="14" fill="#E0E4E7"/>
<path d="M8.75 10.5H9.91667H19.25" stroke="#656565" stroke-width="1.16667" stroke-linecap="round" stroke-linejoin="round"/>
<path d="M11.666 10.5V9.33329C11.666 9.02387 11.7889 8.72713 12.0077 8.50833C12.2265 8.28954 12.5233 8.16663 12.8327 8.16663H15.166C15.4754 8.16663 15.7722 8.28954 15.991 8.50833C16.2098 8.72713 16.3327 9.02387 16.3327 9.33329V10.5M18.0827 10.5V18.6666C18.0827 18.976 17.9598 19.2728 17.741 19.4916C17.5222 19.7104 17.2254 19.8333 16.916 19.8333H11.0827C10.7733 19.8333 10.4765 19.7104 10.2577 19.4916C10.0389 19.2728 9.91602 18.976 9.91602 18.6666V10.5H18.0827Z" stroke="#656565" stroke-width="1.16667" stroke-linecap="round" stroke-linejoin="round"/>
</svg>
