<svg width="28" height="28" viewBox="0 0 28 28" fill="none" xmlns="http://www.w3.org/2000/svg">
<circle cx="14" cy="14" r="14" fill="#FCAAAA"/>
<path d="M8.75 10.5H9.91667H19.25" stroke="#D63031" stroke-width="1.16667" stroke-linecap="round" stroke-linejoin="round"/>
<path d="M11.667 10.5001V9.33341C11.667 9.024 11.7899 8.72725 12.0087 8.50846C12.2275 8.28966 12.5242 8.16675 12.8337 8.16675H15.167C15.4764 8.16675 15.7732 8.28966 15.992 8.50846C16.2107 8.72725 16.3337 9.024 16.3337 9.33341V10.5001M18.0837 10.5001V18.6667C18.0837 18.9762 17.9607 19.2729 17.742 19.4917C17.5232 19.7105 17.2264 19.8334 16.917 19.8334H11.0837C10.7742 19.8334 10.4775 19.7105 10.2587 19.4917C10.0399 19.2729 9.91699 18.9762 9.91699 18.6667V10.5001H18.0837Z" stroke="#D63031" stroke-width="1.16667" stroke-linecap="round" stroke-linejoin="round"/>
</svg>
