<svg width="19" height="19" viewBox="0 0 19 19" fill="none" xmlns="http://www.w3.org/2000/svg">
<path d="M2.375 4.75H3.95833H16.625" stroke="#656565" stroke-width="1.75" stroke-linecap="round" stroke-linejoin="round"/>
<path d="M6.33301 4.74967V3.16634C6.33301 2.74642 6.49982 2.34369 6.79676 2.04676C7.09369 1.74982 7.49642 1.58301 7.91634 1.58301H11.083C11.5029 1.58301 11.9057 1.74982 12.2026 2.04676C12.4995 2.34369 12.6663 2.74642 12.6663 3.16634V4.74967M15.0413 4.74967V15.833C15.0413 16.2529 14.8745 16.6557 14.5776 16.9526C14.2807 17.2495 13.8779 17.4163 13.458 17.4163H5.54134C5.12142 17.4163 4.71869 17.2495 4.42176 16.9526C4.12482 16.6557 3.95801 16.2529 3.95801 15.833V4.74967H15.0413Z" stroke="#656565" stroke-width="1.75" stroke-linecap="round" stroke-linejoin="round"/>
</svg>
