<svg width="28" height="28" viewBox="0 0 28 28" fill="none" xmlns="http://www.w3.org/2000/svg">
<circle cx="14" cy="14" r="14" fill="#E0E4E7"/>
<path d="M14 18.667H19.25" stroke="#656565" stroke-width="1.33333" stroke-linecap="round" stroke-linejoin="round"/>
<path d="M16.625 9.04212C16.8571 8.81006 17.1718 8.67969 17.5 8.67969C17.6625 8.67969 17.8234 8.71169 17.9735 8.77388C18.1237 8.83607 18.2601 8.92722 18.375 9.04212C18.4899 9.15703 18.5811 9.29344 18.6432 9.44358C18.7054 9.59371 18.7374 9.75462 18.7374 9.91712C18.7374 10.0796 18.7054 10.2405 18.6432 10.3907C18.5811 10.5408 18.4899 10.6772 18.375 10.7921L11.0833 18.0838L8.75 18.6671L9.33333 16.3338L16.625 9.04212Z" stroke="#656565" stroke-width="1.33333" stroke-linecap="round" stroke-linejoin="round"/>
</svg>
