<svg width="19" height="20" viewBox="0 0 19 20" fill="none" xmlns="http://www.w3.org/2000/svg">
<path d="M18.1257 8.33954H16.4631L16.4632 5.55375L16.4408 4.40798C16.4408 4.27321 16.3735 4.13843 16.2835 4.02607L12.3742 0.16163C12.2619 0.0492638 12.1271 -0.0181245 11.9699 0.00428608H10.869L2.17438 0.0044428C1.16342 0.0044428 0.332031 0.835672 0.332031 1.8468V18.1576C0.332031 19.1686 1.16326 20 2.17438 20H14.5985C15.6095 20 16.4408 19.1688 16.4408 18.1576V16.3379H18.1034C18.4179 16.3379 18.6651 16.0907 18.6651 15.7762L18.6649 8.90139C18.6649 8.58686 18.4178 8.33972 18.1257 8.33972L18.1257 8.33954ZM11.453 1.10525H11.7676L15.3173 4.655V4.99193L12.4192 4.99209C11.8799 4.99209 11.4532 4.56518 11.4532 4.0261L11.453 1.10525ZM15.3399 18.1575C15.3399 18.5618 15.003 18.8989 14.5985 18.8989H2.17441C1.77009 18.8989 1.433 18.562 1.433 18.1575V1.84666C1.433 1.44233 1.76994 1.10525 2.17441 1.10525H10.3298V4.02597C10.3298 5.17173 11.2734 6.11529 12.4192 6.11529H15.3399V8.33954H4.44351C4.12898 8.33954 3.88184 8.58668 3.88184 8.90121V15.7985C3.88184 16.113 4.12898 16.3602 4.44351 16.3602H15.3399L15.3399 18.1575ZM17.564 15.2368H5.00514V9.46284H17.564V15.2368Z" fill="#676767"/>
<path d="M7.79137 11.1939C7.52182 11.1939 7.2971 11.3062 7.13992 11.5308C6.98257 11.7555 6.91519 12.07 6.91519 12.452C6.91519 13.2608 7.22971 13.6877 7.85879 13.6877C8.03854 13.6877 8.2407 13.6653 8.39803 13.6203C8.57779 13.5753 8.75754 13.5079 8.93727 13.4405V14.4065C8.57777 14.5639 8.17344 14.6537 7.72415 14.6537C7.07269 14.6537 6.57839 14.4739 6.2413 14.092C5.90437 13.7101 5.72461 13.1708 5.72461 12.4744C5.72461 12.0251 5.81441 11.6432 5.97175 11.3061C6.12909 10.9691 6.37607 10.722 6.69077 10.5423C7.00529 10.3625 7.36481 10.2727 7.79168 10.2727C8.24097 10.2727 8.69027 10.3625 9.11718 10.5648L8.75767 11.4634C8.60033 11.396 8.44315 11.3286 8.28579 11.2837C8.1507 11.2163 7.9711 11.1939 7.79136 11.1939H7.79137Z" fill="#676767"/>
<path d="M12.5505 13.2821C12.5505 13.5516 12.4832 13.7764 12.3484 13.9785C12.2136 14.1807 12.0114 14.338 11.7643 14.4504C11.5171 14.5628 11.225 14.6302 10.8657 14.6302C10.5736 14.6302 10.349 14.6077 10.1467 14.5628C9.94452 14.5178 9.76477 14.4504 9.54004 14.3606V13.3271C9.76477 13.4394 9.98933 13.5292 10.2141 13.5966C10.4612 13.664 10.6634 13.6864 10.8655 13.6864C11.0453 13.6864 11.1577 13.664 11.2475 13.5966C11.3372 13.5292 11.3598 13.4618 11.3598 13.3719C11.3598 13.3045 11.3374 13.2595 11.3148 13.2145C11.2924 13.1696 11.225 13.1247 11.1575 13.0798C11.0901 13.0348 10.8879 12.945 10.5958 12.8102C10.3263 12.6754 10.1016 12.5631 9.96676 12.4507C9.83198 12.3383 9.71962 12.2036 9.65223 12.0464C9.58484 11.889 9.56243 11.7094 9.56243 11.5071C9.56243 11.1252 9.69721 10.8107 9.98934 10.586C10.2815 10.3612 10.6634 10.249 11.1577 10.249C11.6069 10.249 12.0562 10.3614 12.5057 10.5635L12.1462 11.4621C11.7419 11.2824 11.4048 11.1926 11.1127 11.1926C10.9553 11.1926 10.8655 11.215 10.7757 11.2824C10.7084 11.3274 10.6634 11.3948 10.6634 11.4845C10.6634 11.5743 10.7084 11.6419 10.7982 11.7093C10.888 11.7767 11.1127 11.889 11.4946 12.0688C11.8541 12.2261 12.1237 12.4057 12.2584 12.608C12.4831 12.7428 12.5505 12.9899 12.5505 13.2821L12.5505 13.2821Z" fill="#676767"/>
<path d="M15.6071 10.3157H16.8878L15.4949 14.5844H14.1468L12.7539 10.3157H14.057L14.6411 12.4726C14.7534 12.9444 14.8208 13.2814 14.8432 13.4835C14.8656 13.3487 14.8882 13.169 14.933 12.9668C14.978 12.7647 15.0004 12.6073 15.0454 12.4949L15.6071 10.3157Z" fill="#676767"/>
</svg>
