<svg width="12" height="16" viewBox="0 0 12 16" fill="none" xmlns="http://www.w3.org/2000/svg">
<path d="M3.33333 3.99998V2.66665C3.33333 2.31302 3.4738 1.97389 3.72385 1.72384C3.9739 1.47379 4.31304 1.33331 4.66666 1.33331H7.33333C7.68695 1.33331 8.02609 1.47379 8.27614 1.72384C8.52619 1.97389 8.66666 2.31302 8.66666 2.66665V3.99998M10.6667 3.99998V13.3333C10.6667 13.6869 10.5262 14.0261 10.2761 14.2761C10.0261 14.5262 9.68695 14.6666 9.33333 14.6666H2.66666C2.31304 14.6666 1.9739 14.5262 1.72385 14.2761C1.4738 14.0261 1.33333 13.6869 1.33333 13.3333V3.99998H10.6667Z" stroke="#696969" stroke-width="1.16667" stroke-linecap="round" stroke-linejoin="round"/>
</svg>
