<svg width="28" height="28" viewBox="0 0 28 28" fill="none" xmlns="http://www.w3.org/2000/svg">
<circle cx="14" cy="14" r="14" fill="#E0E4E7"/>
<path d="M17.8633 20H10.1368C8.95724 20 8 19.0428 8 17.8633V10.9572C8 10.8375 8.03422 10.735 8.11972 10.6324L10.1025 8.18804C10.2051 8.06832 10.3418 8 10.4957 8H17.4871C17.641 8 17.7777 8.06832 17.8803 8.18804L19.8803 10.6324C19.9486 10.7179 20 10.8375 20 10.9572V17.8633C20 19.0428 19.0428 20 17.8632 20H17.8633ZM9.02564 11.1453V17.8803C9.02564 18.4957 9.52131 18.9914 10.1367 18.9914H17.8632C18.4786 18.9914 18.9743 18.4957 18.9743 17.8803L18.9744 11.1453L17.2478 9.02559H10.7521L9.02564 11.1453Z" fill="#656565"/>
<path d="M19.0769 11.47H8.92301C8.64948 11.47 8.41016 11.2478 8.41016 10.9572C8.41016 10.6837 8.63242 10.4443 8.92301 10.4443H19.0769C19.3504 10.4443 19.5897 10.6666 19.5897 10.9572C19.5897 11.2307 19.3675 11.47 19.0769 11.47Z" fill="#656565"/>
<path d="M14.0002 17.9662C13.7266 17.9662 13.4873 17.744 13.4873 17.4534V13.1798C13.4873 12.9063 13.7096 12.667 14.0002 12.667C14.2737 12.667 14.513 12.8893 14.513 13.1798V17.4534C14.513 17.7439 14.2737 17.9662 14.0002 17.9662Z" fill="#656565"/>
<path d="M14 17.9659C13.8633 17.9659 13.7437 17.9146 13.641 17.8121L12.0171 16.1882C11.812 15.9831 11.812 15.6753 12.0171 15.4702C12.2222 15.2651 12.53 15.2651 12.7351 15.4702L14 16.7523L15.265 15.4873C15.4701 15.2822 15.7779 15.2822 15.983 15.4873C16.1881 15.6924 16.1881 16.0001 15.983 16.2052L14.3591 17.8291C14.2564 17.9145 14.1368 17.9659 14 17.9659V17.9659Z" fill="#656565"/>
</svg>
