<svg width="20" height="20" viewBox="0 0 20 20" fill="none" xmlns="http://www.w3.org/2000/svg">
<path d="M11.946 2.08691H5.61263C5.1927 2.08691 4.78998 2.25373 4.49304 2.55066C4.19611 2.84759 4.0293 3.25032 4.0293 3.67025V16.3369C4.0293 16.7568 4.19611 17.1596 4.49304 17.4565C4.78998 17.7534 5.1927 17.9202 5.61263 17.9202H15.1126C15.5326 17.9202 15.9353 17.7534 16.2322 17.4565C16.5291 17.1596 16.696 16.7568 16.696 16.3369V6.83691L11.946 2.08691Z" stroke="#4657CE" stroke-width="1.5" stroke-linecap="round" stroke-linejoin="round"/>
<path d="M11.9473 2.08691V6.83691H16.6973" stroke="#4657CE" stroke-width="1.5" stroke-linecap="round" stroke-linejoin="round"/>
<path d="M13.5306 10.7959H7.19727" stroke="#4657CE" stroke-width="1.5" stroke-linecap="round" stroke-linejoin="round"/>
<path d="M13.5306 13.9619H7.19727" stroke="#4657CE" stroke-width="1.5" stroke-linecap="round" stroke-linejoin="round"/>
<path d="M8.7806 7.62891H7.98893H7.19727" stroke="#4657CE" stroke-width="1.5" stroke-linecap="round" stroke-linejoin="round"/>
</svg>
