<svg width="28" height="28" viewBox="0 0 28 28" fill="none" xmlns="http://www.w3.org/2000/svg">
<circle cx="14" cy="14" r="14" fill="#E0E4E7"/>
<path d="M8.75 10.5H9.91667H19.25" stroke="#656565" stroke-width="1.16667" stroke-linecap="round" stroke-linejoin="round"/>
<path d="M11.667 10.4998V9.33317C11.667 9.02375 11.7899 8.72701 12.0087 8.50821C12.2275 8.28942 12.5242 8.1665 12.8337 8.1665H15.167C15.4764 8.1665 15.7732 8.28942 15.992 8.50821C16.2107 8.72701 16.3337 9.02375 16.3337 9.33317V10.4998M18.0837 10.4998V18.6665C18.0837 18.9759 17.9607 19.2727 17.742 19.4915C17.5232 19.7103 17.2264 19.8332 16.917 19.8332H11.0837C10.7742 19.8332 10.4775 19.7103 10.2587 19.4915C10.0399 19.2727 9.91699 18.9759 9.91699 18.6665V10.4998H18.0837Z" stroke="#656565" stroke-width="1.16667" stroke-linecap="round" stroke-linejoin="round"/>
</svg>
